<svg width="234" height="54" viewBox="0 0 234 54" fill="none" xmlns="http://www.w3.org/2000/svg">
<path d="M70.3356 14.1473C72.2208 14.1473 73.5346 14.486 74.2723 15.161C75.0123 15.836 75.38 16.7882 75.38 18.0151C75.38 18.8583 75.2324 19.5759 74.9397 20.1633C74.647 20.7531 74.1294 21.2126 73.3894 21.5442C72.6494 21.8758 71.6307 22.0392 70.3333 22.0392H67.3755V24.5688H63.8792C63.9541 22.7095 63.9939 20.971 63.9939 19.3509C63.9939 17.7308 63.9564 15.9923 63.8792 14.1331H67.3755V14.1473H70.3356ZM69.3403 19.2656C70.1272 19.2656 70.7174 19.2349 71.1108 19.1733C71.5042 19.1117 71.7782 18.998 71.9351 18.8346C72.092 18.6711 72.1693 18.4319 72.1693 18.1169C72.1693 17.8019 72.0967 17.5627 71.9492 17.404C71.8016 17.2453 71.5323 17.1387 71.1389 17.0795C70.7455 17.0227 70.1459 16.9942 69.3403 16.9942H67.3779V19.2656H69.3403Z" fill="#EDDC11"/>
<path d="M87.3305 19.725C86.9277 20.3005 86.2392 20.7174 85.2626 20.9756C85.3774 21.1295 85.457 21.2479 85.5038 21.3356L87.8059 24.571H83.9395C83.5226 23.7846 82.8646 22.6738 81.963 21.2361H79.874V24.571H76.5205C76.5954 22.7117 76.6353 20.9732 76.6353 19.3531C76.6353 17.733 76.5978 15.9945 76.5205 14.1353H79.874V14.1495H82.7873C84.7006 14.1495 86.0378 14.4597 86.7965 15.0827C87.5553 15.7056 87.9347 16.5488 87.9347 17.6122C87.9347 18.446 87.7333 19.1494 87.3305 19.725ZM79.874 16.9064V18.5454H81.792C82.5976 18.5454 83.2065 18.5194 83.6186 18.4673C84.0308 18.4152 84.3165 18.3299 84.4781 18.2162C84.6397 18.1025 84.7193 17.9344 84.7193 17.7141C84.7193 17.5033 84.6444 17.3399 84.4922 17.2262C84.3399 17.1101 84.0566 17.0296 83.6397 16.9822C83.2229 16.9349 82.607 16.9112 81.792 16.9112H79.874V16.9064Z" fill="#EDDC11"/>
<path d="M90.6064 23.2827C89.583 22.3282 89.0725 20.99 89.0725 19.2657C89.0725 17.5603 89.5807 16.2269 90.5994 15.27C91.6181 14.3107 93.2176 13.8323 95.3978 13.8323C97.5875 13.8323 99.1916 14.3107 100.21 15.27C101.229 16.2292 101.74 17.5603 101.74 19.2657C101.74 20.9994 101.231 22.3424 100.22 23.2898C99.2057 24.2396 97.5992 24.7133 95.4002 24.7133C93.2246 24.7133 91.6298 24.2372 90.6064 23.2827ZM97.6694 21.17C98.1331 20.7626 98.365 20.1278 98.365 19.2657C98.365 18.4225 98.1331 17.7948 97.6694 17.3827C97.2058 16.9706 96.447 16.7645 95.3955 16.7645C94.3534 16.7645 93.5993 16.9706 93.1356 17.3827C92.6719 17.7948 92.4401 18.4225 92.4401 19.2657C92.4401 20.1183 92.6719 20.7507 93.1356 21.1629C93.5993 21.575 94.3534 21.781 95.3955 21.781C96.447 21.781 97.2058 21.5773 97.6694 21.17Z" fill="#EDDC11"/>
<path d="M108.731 18.6166H114.801V24.5687H112.3L112.002 22.0249C111.719 22.9344 111.211 23.6118 110.483 24.0524C109.752 24.4929 108.862 24.7132 107.81 24.7132C106.853 24.7132 106.003 24.4977 105.258 24.0666C104.513 23.6355 103.93 23.0173 103.509 22.212C103.087 21.4067 102.876 20.4688 102.876 19.3935C102.876 17.6787 103.382 16.3215 104.396 15.3244C105.41 14.3272 106.989 13.8298 109.129 13.8298C110.351 13.8298 111.429 14.0312 112.363 14.4338C113.297 14.8365 114.089 15.4594 114.745 16.3026C114.318 16.5228 113.485 16.9634 112.244 17.6242L111.888 17.8255C111.518 17.4513 111.087 17.1718 110.595 16.9847C110.103 16.7976 109.581 16.7052 109.031 16.7052C108.122 16.7052 107.443 16.9468 106.998 17.4324C106.553 17.9155 106.33 18.5124 106.33 19.223C106.33 19.9904 106.569 20.6086 107.049 21.0775C107.527 21.5465 108.26 21.781 109.246 21.781C109.672 21.781 110.087 21.7194 110.49 21.5939C110.892 21.4683 111.232 21.2528 111.506 20.9473H108.733V18.6166H108.731Z" fill="#EDDC11"/>
<path d="M126.746 19.725C126.343 20.3005 125.655 20.7174 124.678 20.9756C124.793 21.1295 124.873 21.2479 124.92 21.3356L127.222 24.571H123.355C122.938 23.7846 122.28 22.6738 121.379 21.2361H119.29V24.571H115.936C116.011 22.7117 116.051 20.9732 116.051 19.3531C116.051 17.733 116.014 15.9945 115.936 14.1353H119.29V14.1495H122.203C124.116 14.1495 125.454 14.4597 126.212 15.0827C126.971 15.7056 127.35 16.5488 127.35 17.6122C127.35 18.446 127.149 19.1494 126.746 19.725ZM119.29 16.9064V18.5454H121.208C122.013 18.5454 122.622 18.5194 123.034 18.4673C123.447 18.4152 123.732 18.3299 123.894 18.2162C124.055 18.1025 124.135 17.9344 124.135 17.7141C124.135 17.5033 124.06 17.3399 123.908 17.2262C123.756 17.1101 123.472 17.0296 123.056 16.9822C122.639 16.9349 122.023 16.9112 121.208 16.9112H119.29V16.9064Z" fill="#EDDC11"/>
<path d="M136.603 24.5687C136.423 24.0216 136.182 23.3371 135.877 22.5128H131.343L130.634 24.5687H127.065L131.046 14.1306H136.278L140.287 24.5687H136.603ZM135.069 20.2698C134.708 19.2632 134.338 18.2566 133.961 17.25L133.62 16.3168C133.287 17.1884 132.8 18.5076 132.156 20.2698H135.069Z" fill="#EDDC11"/>
<path d="M154.328 14.1331L155.436 24.5711H151.755L151.527 17.1245L150.106 24.5711H146.382L144.933 17.1813L144.72 24.5711H141.038L142.146 14.1331H146.98L148.216 20.9331L149.296 14.1331H154.328Z" fill="#EDDC11"/>
<path d="M165.544 24.5687C165.363 24.0216 165.122 23.3371 164.818 22.5128H160.284L159.574 24.5687H156.005L159.987 14.1306H165.218L169.227 24.5687H165.544ZM164.01 20.2698C163.649 19.2632 163.279 18.2566 162.902 17.25L162.56 16.3168C162.228 17.1884 161.741 18.5076 161.097 20.2698H164.01Z" fill="#EDDC11"/>
<path d="M178.466 14.6281C179.499 15.0639 180.222 15.6679 180.635 16.44C181.047 17.2121 181.253 18.1572 181.253 19.2799C181.253 20.3433 181.016 21.2742 180.541 22.07C180.068 22.8658 179.356 23.4816 178.41 23.9174C177.461 24.3532 176.297 24.5711 174.913 24.5711C174.07 24.5711 173.213 24.5711 172.34 24.5711C171.469 24.5711 170.586 24.5664 169.696 24.5569C169.771 22.6692 169.811 20.9094 169.811 19.2799C169.811 17.6314 169.773 15.9118 169.696 14.1188C170.822 14.0241 172.34 13.9744 174.244 13.9744C176.026 13.9744 177.433 14.1923 178.466 14.6281ZM175.309 21.7076C176.19 21.7076 176.778 21.4921 177.073 21.061C177.368 20.6299 177.513 20.0354 177.513 19.2799C177.513 18.5527 177.358 17.963 177.052 17.5106C176.742 17.0606 176.164 16.8355 175.309 16.8355C174.389 16.8355 173.703 16.864 173.248 16.9208V21.7076H175.309Z" fill="#EDDC11"/>
<path d="M183.925 23.2827C182.901 22.3282 182.391 20.99 182.391 19.2657C182.391 17.5603 182.899 16.2269 183.918 15.27C184.936 14.3107 186.536 13.8323 188.716 13.8323C190.906 13.8323 192.51 14.3107 193.529 15.27C194.547 16.2292 195.058 17.5603 195.058 19.2657C195.058 20.9994 194.55 22.3424 193.538 23.2898C192.524 24.2396 190.918 24.7133 188.719 24.7133C186.543 24.7133 184.948 24.2372 183.925 23.2827ZM190.988 21.17C191.451 20.7626 191.683 20.1278 191.683 19.2657C191.683 18.4225 191.451 17.7948 190.988 17.3827C190.524 16.9706 189.765 16.7645 188.714 16.7645C187.672 16.7645 186.918 16.9706 186.454 17.3827C185.99 17.7948 185.758 18.4225 185.758 19.2657C185.758 20.1183 185.99 20.7507 186.454 21.1629C186.918 21.575 187.672 21.781 188.714 21.781C189.765 21.781 190.524 21.5773 190.988 21.17Z" fill="#EDDC11"/>
<path d="M207.001 19.725C206.598 20.3005 205.91 20.7174 204.933 20.9756C205.048 21.1295 205.127 21.2479 205.174 21.3356L207.476 24.571H203.61C203.193 23.7846 202.535 22.6738 201.633 21.2361H199.544V24.571H196.191C196.266 22.7117 196.306 20.9732 196.306 19.3531C196.306 17.733 196.268 15.9945 196.191 14.1353H199.544V14.1495H202.458C204.371 14.1495 205.708 14.4597 206.467 15.0827C207.226 15.7056 207.605 16.5488 207.605 17.6122C207.605 18.446 207.404 19.1494 207.001 19.725ZM199.544 16.9064V18.5454H201.462C202.268 18.5454 202.877 18.5194 203.289 18.4673C203.701 18.4152 203.987 18.3299 204.149 18.2162C204.31 18.1025 204.39 17.9344 204.39 17.7141C204.39 17.5033 204.315 17.3399 204.163 17.2262C204.01 17.1101 203.727 17.0296 203.31 16.9822C202.893 16.9349 202.277 16.9112 201.462 16.9112H199.544V16.9064Z" fill="#EDDC11"/>
<path d="M212.097 21.9395C215.699 21.9206 218.308 21.8685 219.928 21.7809C219.863 22.174 219.821 22.579 219.807 22.9959C219.793 23.4128 219.786 23.9386 219.786 24.571H208.741C208.816 22.7117 208.856 20.9732 208.856 19.3531C208.856 17.733 208.819 15.9945 208.741 14.1353H219.786V16.7383H212.095V18.1191C212.549 18.1286 213.221 18.1333 214.114 18.1333C215.619 18.1333 217.179 18.1049 218.79 18.0481V20.5208C217.179 20.464 215.619 20.4355 214.114 20.4355C213.224 20.4355 212.549 20.4403 212.095 20.4497V21.9395H212.097Z" fill="#EDDC11"/>
<path d="M221.869 21.9681C222.082 21.5465 222.288 21.0586 222.487 20.502C223.16 20.8952 223.942 21.2007 224.834 21.4233C225.724 21.6436 226.553 21.7526 227.321 21.7526C228.108 21.7526 228.663 21.6839 228.984 21.5441C229.305 21.4044 229.466 21.2552 229.466 21.0918C229.466 20.5067 228.586 20.2154 226.822 20.2154C224.89 20.2154 223.487 20.0117 222.614 19.6043C221.743 19.1969 221.307 18.5385 221.307 17.6266C221.307 16.3334 221.839 15.3789 222.9 14.7654C223.96 14.152 225.34 13.8464 227.035 13.8464C228.021 13.8464 229.033 13.9743 230.07 14.2278C231.108 14.4812 232.045 14.8294 232.878 15.2699C232.604 15.9023 232.314 16.6745 232.012 17.584C231.956 17.7758 231.906 17.9203 231.869 18.015C231.386 17.6219 230.656 17.2926 229.679 17.0297C228.703 16.7668 227.841 16.6342 227.092 16.6342C226.19 16.6342 225.586 16.6934 225.272 16.8142C224.958 16.935 224.804 17.1079 224.804 17.34C224.804 17.5698 225.019 17.7545 225.45 17.8942C225.881 18.034 226.504 18.1027 227.319 18.1027C229.328 18.1027 230.787 18.3348 231.698 18.799C232.607 19.2633 233.063 19.9762 233.063 20.9331C233.063 22.276 232.581 23.24 231.614 23.8298C230.646 24.4195 229.183 24.7132 227.22 24.7132C226.169 24.7132 225.099 24.5948 224.007 24.3603C222.918 24.1258 221.937 23.7824 221.066 23.3324C221.387 22.8445 221.656 22.3897 221.869 21.9681Z" fill="#EDDC11"/>
<path d="M146.111 33.915H96.04V37.1623H146.111V33.915Z" fill="#EDDC11"/>
<path d="M72.6516 30.085C73.6843 30.5208 74.408 31.1247 74.8201 31.8969C75.2323 32.669 75.4384 33.6141 75.4384 34.7367C75.4384 35.8002 75.2018 36.731 74.7265 37.5269C74.2534 38.3227 73.5415 38.9385 72.5954 39.3743C71.6469 39.8101 70.483 40.028 69.099 40.028C68.2559 40.028 67.3988 40.028 66.5253 40.028C65.6541 40.028 64.7713 40.0233 63.8813 40.0138C63.9563 38.1261 63.9961 36.3663 63.9961 34.7391C63.9961 33.0906 63.9586 31.3711 63.8813 29.5781C65.0078 29.4834 66.5253 29.4336 68.4292 29.4336C70.2114 29.4312 71.6188 29.6491 72.6516 30.085ZM69.4971 37.1645C70.3776 37.1645 70.9654 36.9489 71.2605 36.5179C71.5532 36.0868 71.7008 35.4923 71.7008 34.7344C71.7008 34.0049 71.5462 33.4175 71.2394 32.9651C70.9303 32.5151 70.3519 32.2901 69.4971 32.2901C68.5768 32.2901 67.8906 32.3185 67.4363 32.3753V37.1621H69.4971V37.1645Z" fill="white"/>
<path d="M78.1103 38.7395C77.0869 37.785 76.5764 36.4467 76.5764 34.7225C76.5764 33.0171 77.0846 31.6836 78.1033 30.7268C79.122 29.7675 80.7215 29.2891 82.9017 29.2891C85.0914 29.2891 86.6955 29.7675 87.7142 30.7268C88.7329 31.686 89.2435 33.0171 89.2435 34.7225C89.2435 36.4562 88.7353 37.7992 87.7236 38.749C86.7096 39.6987 85.1031 40.1724 82.9041 40.1724C80.7309 40.1701 79.1337 39.694 78.1103 38.7395ZM85.1757 36.6268C85.6394 36.2194 85.8712 35.5846 85.8712 34.7225C85.8712 33.8793 85.6394 33.2516 85.1757 32.8395C84.712 32.4274 83.9532 32.2213 82.9017 32.2213C81.8596 32.2213 81.1056 32.4274 80.6419 32.8395C80.1782 33.2516 79.9463 33.8793 79.9463 34.7225C79.9463 35.5751 80.1782 36.2075 80.6419 36.6196C81.1056 37.0318 81.8596 37.2378 82.9017 37.2378C83.9532 37.2378 84.712 37.0341 85.1757 36.6268Z" fill="white"/>
<path d="M162.146 40.0257C161.965 39.4786 161.724 38.7941 161.42 37.9699H156.886L156.176 40.0257H152.607L156.588 29.5876H161.82L165.829 40.0257H162.146ZM160.612 35.7269C160.251 34.7202 159.881 33.7136 159.504 32.707L159.162 31.7714C158.829 32.643 158.342 33.9623 157.698 35.7245H160.612V35.7269Z" fill="white"/>
<path d="M179.871 29.5898L180.979 40.0279H177.297L177.07 32.5813L175.648 40.0279H171.925L170.475 32.6381L170.262 40.0279H166.581L167.689 29.5898H172.522L173.759 36.3899L174.838 29.5898H179.871Z" fill="white"/>
<path d="M191.086 40.0257C190.906 39.4786 190.664 38.7941 190.36 37.9699H185.826L185.117 40.0257H181.548L185.529 29.5876H190.76L194.77 40.0257H191.086ZM189.552 35.7269C189.191 34.7202 188.821 33.7136 188.444 32.707L188.102 31.7714C187.77 32.643 187.283 33.9623 186.639 35.7245H189.552V35.7269Z" fill="white"/>
<path d="M207.162 29.6042C207.097 31.2243 207.064 32.9581 207.064 34.8079C207.064 36.6672 207.097 38.4081 207.162 40.0258H202.074L198.633 32.1765L198.889 40.0258H195.235C195.31 38.1665 195.35 36.4256 195.35 34.8079C195.35 33.1973 195.313 31.4635 195.235 29.6042H200.467L203.921 37.6691L203.68 29.6042H207.162Z" fill="white"/>
<path d="M220.212 29.5898C220.146 31.2099 220.114 32.9484 220.114 34.8077C220.114 36.667 220.146 38.4079 220.212 40.0256H216.872V36.1151H211.641V40.0256H208.301C208.376 38.1663 208.416 36.4254 208.416 34.8077C208.416 33.1876 208.379 31.4491 208.301 29.5898H211.641V33.5003H216.872V29.5898H220.212Z" fill="white"/>
<path d="M230.318 40.0257C230.138 39.4786 229.897 38.7941 229.592 37.9699H225.059L224.349 40.0257H220.78L224.761 29.5876H229.993L234.002 40.0257H230.318ZM228.782 35.7269C228.421 34.7202 228.051 33.7136 227.674 32.707L227.333 31.7714C227 32.643 226.513 33.9623 225.869 35.7245H228.782V35.7269Z" fill="white"/>
<path d="M229.827 26.5464H224.825V28.2707H229.827V26.5464Z" fill="white"/>
<path d="M26.6919 41.4682L23.9473 38.6923L35.5137 26.9942L23.9473 15.2984L26.6919 12.5225L41.0006 26.9942L26.6919 41.4682Z" fill="white"/>
<path d="M22.7654 37.5175L12.3606 26.9941L22.7654 16.4731L25.5077 19.2467L17.8475 26.9941L25.5077 34.7439L22.7654 37.5175Z" fill="#EDDC11"/>
<path d="M45.5695 34.7817L42.8459 31.9868L47.8458 27.0011L42.8459 22.013L45.5695 19.2205L53.3702 27.0011L45.5695 34.7817Z" fill="#EDDC11"/>
<path d="M7.8007 34.777L0 26.994L7.8007 19.2134L10.5243 22.0082L5.52677 26.994L10.5243 31.9821L7.8007 34.777Z" fill="#EDDC11"/>
<path d="M31.6148 10.6442L26.6852 5.58972L21.7556 10.6442L18.9922 7.88956L26.6852 0L34.3781 7.88956L31.6148 10.6442Z" fill="#EDDC11"/>
<path d="M41.7334 6.3855L34.3777 7.86819L35.1364 11.717L40.4548 10.6441L42.8458 13.0671L41.7733 18.4437L45.5764 19.2205L47.0611 11.7834L41.7334 6.3855Z" fill="#EDDC11"/>
<path d="M11.6387 6.3855L6.30396 11.7763L7.77932 19.2134L11.5848 18.4437L10.5169 13.0671L12.9127 10.6465L18.2287 11.7265L18.9921 7.88004L11.6387 6.3855Z" fill="#EDDC11"/>
<path d="M21.7507 43.3557L26.6803 48.4125L31.6099 43.3557L34.3733 46.1103L26.6803 53.9999L18.9873 46.1103L21.7507 43.3557Z" fill="#EDDC11"/>
<path d="M18.2287 42.2829L12.9103 43.3558L10.5193 40.9328L11.5919 35.5586L7.78869 34.7817L6.30396 42.2165L11.6317 47.6168L18.9874 46.1317L18.2287 42.2829Z" fill="#EDDC11"/>
<path d="M47.0624 42.2238L45.5871 34.7866L41.7815 35.5588L42.8494 40.9329L40.4537 43.3536L35.1377 42.2735L34.3743 46.1224L41.7277 47.6169L47.0624 42.2238Z" fill="#EDDC11"/>
</svg>
